<svg width="96" height="97" viewBox="0 0 96 97" fill="none" xmlns="http://www.w3.org/2000/svg">
<path d="M2.06578 29.0184C5.31323 13.3619 15.3054 4.64183 30.8913 2.00755C42.4129 0.0606231 53.9388 0.0359677 65.4411 2.06222C81.4891 4.88903 91.1365 14.1177 94.2098 30.0109C96.5843 42.2936 96.6216 54.7073 94.1725 66.9785C90.8871 82.5264 80.6373 92.1239 65.1088 94.7485C53.5872 96.6952 42.0613 96.7199 30.559 94.6938C14.511 91.8668 4.82076 82.1774 1.74761 66.2845C-0.747952 53.9207 -0.507829 41.4285 2.06578 29.0182V29.0184Z" fill="#023A2E"/>
<path d="M56.4074 51.8151C56.3708 51.8558 56.33 51.8923 56.287 51.9266L48.2848 59.5439L48.2826 59.546C47.6357 60.1613 46.7974 60.4551 45.9677 60.4358C45.1359 60.4143 44.3148 60.0799 43.6958 59.4346L43.6937 59.4324C43.0768 58.785 42.7802 57.951 42.8017 57.1213C42.821 56.2916 43.1585 55.4705 43.8076 54.853L46.6212 52.1753L20.2759 51.9759C19.3796 51.9673 18.5715 51.5985 17.989 51.009C17.428 50.4408 17.0776 49.6647 17.0583 48.8093C17.0561 48.7922 17.0561 48.7771 17.054 48.76V48.7557V48.7386V48.7278V48.7214V48.7193V48.7107H17.0583C17.0669 47.8167 17.4366 47.0106 18.0277 46.4317C18.5973 45.8721 19.3732 45.5227 20.2329 45.5034C20.2501 45.5012 20.2652 45.5012 20.2824 45.4991H20.2867H20.3039H20.3146H20.3211H20.3232H20.3318V45.5034L46.6856 45.7028L43.9215 42.9779C43.2853 42.3497 42.9607 41.5221 42.9543 40.6924C42.9478 39.867 43.2573 39.0373 43.885 38.4006L43.8893 38.3963C44.5169 37.7617 45.3466 37.4401 46.1762 37.4337C47.0059 37.4273 47.8377 37.736 48.4761 38.3599L48.4804 38.3642L56.8265 46.5925C56.8351 46.6011 56.8459 46.6075 56.8545 46.6161L56.8523 46.6182C56.8674 46.6311 56.8588 46.6247 56.8523 46.6182L56.8631 46.6289C56.8824 46.6461 56.9017 46.6632 56.9211 46.6804L56.9189 46.6825C56.9469 46.7104 56.977 46.7383 57.0071 46.7704C57.6261 47.4158 57.9227 48.254 57.9034 49.0837C57.884 49.9134 57.5466 50.7367 56.8975 51.3541L56.4074 51.8151Z" fill="#1BD8B9"/>
<path d="M33.5353 36.3143C37.5625 29.8421 44.7425 25.5352 52.9298 25.5352C65.5366 25.5352 75.7514 35.7468 75.7514 48.3399C75.7514 60.9374 65.5344 71.1447 52.9298 71.1447C44.0009 71.1447 36.2723 66.026 32.5215 58.5622" stroke="#D9F5EC" stroke-width="6" stroke-miterlimit="10" stroke-linecap="round"/>
</svg>
